<svg xmlns="http://www.w3.org/2000/svg" version="1.1" xmlns:xlink="http://www.w3.org/1999/xlink" xmlns:svgjs="http://svgjs.dev/svgjs" width="1500" height="1500" viewBox="0 0 1500 1500"><rect width="1500" height="1500" fill="#ffffff"></rect><g transform="matrix(0.6666666666666666,0,0,0.6666666666666666,249.39393939393938,435.99032258064517)"><svg viewBox="0 0 396 248" data-background-color="#ffffff" preserveAspectRatio="xMidYMid meet" height="939" width="1500" xmlns="http://www.w3.org/2000/svg" xmlns:xlink="http://www.w3.org/1999/xlink"><g id="tight-bounds" transform="matrix(1,0,0,1,0.2400000000000091,0.4000000000000057)"><svg viewBox="0 0 395.52 247.2" height="247.2" width="395.52"><g><svg></svg></g><g><svg viewBox="0 0 395.52 247.2" height="247.2" width="395.52"><g transform="matrix(1,0,0,1,75.54432,92.89098395939087)"><svg viewBox="0 0 244.43135999999998 61.41803208121827" height="61.41803208121827" width="244.43135999999998"><g><svg viewBox="0 0 244.43135999999998 61.41803208121827" height="61.41803208121827" width="244.43135999999998"><g><svg viewBox="0 0 244.43135999999998 61.41803208121827" height="61.41803208121827" width="244.43135999999998"><g><svg viewBox="0 0 244.43135999999998 61.41803208121827" height="61.41803208121827" width="244.43135999999998"><g id="textblocktransform"><svg viewBox="0 0 244.43135999999998 61.41803208121827" height="61.41803208121827" width="244.43135999999998" id="textblock"><g><svg viewBox="0 0 244.43135999999998 61.41803208121827" height="61.41803208121827" width="244.43135999999998"><g transform="matrix(1,0,0,1,0,0)"><svg width="244.43135999999998" viewBox="3.25 -35.5 144.27 36.26" height="61.41803208121827" data-palette-color="#2a2c35"><path d="M31.3-17.5L31.3-17.5Q31.3-15.09 30.68-12.85 30.05-10.62 28.91-8.68 27.76-6.74 26.17-5.14 24.58-3.54 22.63-2.39 20.68-1.25 18.44-0.62 16.21 0 13.79 0L13.79 0 3.25 0 3.25-35.01 13.79-35.01Q16.21-35.01 18.44-34.39 20.68-33.76 22.63-32.62 24.58-31.47 26.17-29.87 27.76-28.27 28.91-26.33 30.05-24.39 30.68-22.16 31.3-19.92 31.3-17.5ZM24.29-17.5L24.29-17.5Q24.29-19.68 23.47-21.58 22.66-23.49 21.23-24.91 19.8-26.34 17.88-27.17 15.97-28 13.79-28L13.79-28 10.3-28 10.3-7.01 13.79-7.01Q15.97-7.01 17.88-7.82 19.8-8.64 21.23-10.07 22.66-11.5 23.47-13.42 24.29-15.33 24.29-17.5ZM70.24-17.36L70.24-17.36Q70.24-14.87 69.59-12.56 68.94-10.25 67.77-8.24 66.6-6.23 64.94-4.57 63.28-2.91 61.28-1.72 59.27-0.54 56.96 0.11 54.64 0.76 52.15 0.76L52.15 0.76Q49.66 0.76 47.35 0.11 45.04-0.54 43.03-1.72 41.01-2.91 39.35-4.57 37.69-6.23 36.51-8.24 35.32-10.25 34.68-12.56 34.03-14.87 34.03-17.36L34.03-17.36Q34.03-19.85 34.68-22.17 35.32-24.49 36.51-26.49 37.69-28.49 39.35-30.15 41.01-31.81 43.03-32.98 45.04-34.16 47.35-34.8 49.66-35.45 52.15-35.45L52.15-35.45Q54.64-35.45 56.96-34.8 59.27-34.16 61.28-32.98 63.28-31.81 64.94-30.15 66.6-28.49 67.77-26.49 68.94-24.49 69.59-22.17 70.24-19.85 70.24-17.36ZM63.28-17.36L63.28-17.36Q63.28-19.65 62.4-21.69 61.52-23.73 60.02-25.23 58.52-26.73 56.48-27.61 54.44-28.49 52.15-28.49L52.15-28.49Q49.83-28.49 47.8-27.61 45.77-26.73 44.26-25.23 42.75-23.73 41.87-21.69 40.99-19.65 40.99-17.36L40.99-17.36Q40.99-15.06 41.87-13.05 42.75-11.04 44.26-9.52 45.77-8.01 47.8-7.13 49.83-6.25 52.15-6.25L52.15-6.25Q54.44-6.25 56.48-7.13 58.52-8.01 60.02-9.52 61.52-11.04 62.4-13.05 63.28-15.06 63.28-17.36ZM99.07-9.69L102.78-3.59Q100.34-1.49 97.31-0.37 94.28 0.76 91.04 0.76L91.04 0.76Q88.54 0.76 86.24 0.11 83.93-0.54 81.92-1.72 79.9-2.91 78.24-4.57 76.58-6.23 75.4-8.24 74.21-10.25 73.57-12.56 72.92-14.87 72.92-17.36L72.92-17.36Q72.92-19.85 73.57-22.17 74.21-24.49 75.4-26.5 76.58-28.52 78.24-30.18 79.9-31.84 81.92-33.02 83.93-34.2 86.24-34.85 88.54-35.5 91.04-35.5L91.04-35.5Q94.28-35.5 97.31-34.39 100.34-33.28 102.78-31.15L102.78-31.15 99.07-25.05Q97.53-26.71 95.43-27.6 93.33-28.49 91.04-28.49L91.04-28.49Q88.72-28.49 86.69-27.61 84.66-26.73 83.15-25.23 81.64-23.73 80.76-21.69 79.88-19.65 79.88-17.36L79.88-17.36Q79.88-15.06 80.76-13.05 81.64-11.04 83.15-9.52 84.66-8.01 86.69-7.13 88.72-6.25 91.04-6.25L91.04-6.25Q93.33-6.25 95.43-7.14 97.53-8.03 99.07-9.69L99.07-9.69ZM113.42-13.99L127.43-13.99 127.43-21Q127.43-22.44 126.88-23.72 126.34-25 125.38-25.95 124.43-26.9 123.15-27.45 121.87-28 120.43-28L120.43-28Q118.99-28 117.7-27.45 116.42-26.9 115.47-25.95 114.52-25 113.97-23.72 113.42-22.44 113.42-21L113.42-21 113.42-13.99ZM134.44-21L134.44 0 127.43 0 127.43-7.01 113.42-7.01 113.42 0 106.44 0 106.44-21Q106.44-23.9 107.54-26.45 108.64-29 110.53-30.91 112.42-32.81 114.97-33.91 117.52-35.01 120.43-35.01L120.43-35.01Q123.33-35.01 125.88-33.91 128.43-32.81 130.34-30.91 132.24-29 133.34-26.45 134.44-23.9 134.44-21L134.44-21ZM147.52-35.01L147.52 0 140.52 0 140.52-35.01 147.52-35.01Z" opacity="1" transform="matrix(1,0,0,1,0,0)" fill="#000000" class="wordmark-text-0" data-fill-palette-color="primary" id="text-0"></path></svg></g></svg></g></svg></g></svg></g></svg></g></svg></g></svg></g><path d="M199.604 86.891L199.604 28.424 9.252 28.424 9.252 218.776 199.604 218.776 199.604 160.309 194.065 160.309 194.065 213.237 14.791 213.237 14.791 33.963 194.065 33.963 194.065 86.891Z" fill="#000000" stroke="transparent" data-fill-palette-color="tertiary"></path></svg></g><defs></defs></svg><rect width="395.52" height="247.2" fill="none" stroke="none" visibility="hidden"></rect></g></svg></g></svg>